<svg width="157" height="195" viewBox="0 0 157 195" xmlns="http://www.w3.org/2000/svg">
  <g id="Design" fill="none" fill-rule="evenodd">
    <g id="1a-Home" transform="translate(-1102 -2474)" fill="#8283DC">
      <g id="Section-4" transform="translate(222 2274)">
        <g id="1" transform="translate(0 200)">
          <path d="M909.08 37.58a1.5 1.5 0 1 1 0-3 1.5 1.5 0 0 1 0 3zm0 24a1.5 1.5 0 1 1 0-3 1.5 1.5 0 0 1 0 3zm24-24a1.5 1.5 0 1 1 0-3 1.5 1.5 0 0 1 0 3zm0 24a1.5 1.5 0 1 1 0-3 1.5 1.5 0 0 1 0 3zm24 0a1.5 1.5 0 1 1 0-3 1.5 1.5 0 0 1 0 3zm-72-24a1.5 1.5 0 1 1 0-3 1.5 1.5 0 0 1 0 3zm96 0a1.5 1.5 0 1 1 0-3 1.5 1.5 0 0 1 0 3zm0 24a1.5 1.5 0 1 1 0-3 1.5 1.5 0 0 1 0 3zm24-24a1.5 1.5 0 1 1 0-3 1.5 1.5 0 0 1 0 3zm0 24a1.5 1.5 0 1 1 0-3 1.5 1.5 0 0 1 0 3zm24 0a1.5 1.5 0 1 1 0-3 1.5 1.5 0 0 1 0 3zm-72-24a1.5 1.5 0 1 1 0-3 1.5 1.5 0 0 1 0 3zm-48 48a1.5 1.5 0 1 1 0-3 1.5 1.5 0 0 1 0 3zm0 24a1.5 1.5 0 1 1 0-3 1.5 1.5 0 0 1 0 3zm24-24a1.5 1.5 0 1 1 0-3 1.5 1.5 0 0 1 0 3zm0 24a1.5 1.5 0 1 1 0-3 1.5 1.5 0 0 1 0 3zm24 0a1.5 1.5 0 1 1 0-3 1.5 1.5 0 0 1 0 3zm-72-24a1.5 1.5 0 1 1 0-3 1.5 1.5 0 0 1 0 3zm96 0a1.5 1.5 0 1 1 0-3 1.5 1.5 0 0 1 0 3zm0 24a1.5 1.5 0 1 1 0-3 1.5 1.5 0 0 1 0 3zm24-24a1.5 1.5 0 1 1 0-3 1.5 1.5 0 0 1 0 3zm0 24a1.5 1.5 0 1 1 0-3 1.5 1.5 0 0 1 0 3zm24 0a1.5 1.5 0 1 1 0-3 1.5 1.5 0 0 1 0 3zm-72-24a1.5 1.5 0 1 1 0-3 1.5 1.5 0 0 1 0 3zm51 75a1.5 1.5 0 1 1 0-3 1.5 1.5 0 0 1 0 3zm0-24a1.5 1.5 0 1 1 0-3 1.5 1.5 0 0 1 0 3zm-24 24a1.5 1.5 0 1 1 0-3 1.5 1.5 0 0 1 0 3zm0-24a1.5 1.5 0 1 1 0-3 1.5 1.5 0 0 1 0 3zm-24 0a1.5 1.5 0 1 1 0-3 1.5 1.5 0 0 1 0 3zm72 24a1.5 1.5 0 1 1 0-3 1.5 1.5 0 0 1 0 3zm-96 0a1.5 1.5 0 1 1 0-3 1.5 1.5 0 0 1 0 3zm0-24a1.5 1.5 0 1 1 0-3 1.5 1.5 0 0 1 0 3zm-24 24a1.5 1.5 0 1 1 0-3 1.5 1.5 0 0 1 0 3zm0-24a1.5 1.5 0 1 1 0-3 1.5 1.5 0 0 1 0 3zm-24 0a1.5 1.5 0 1 1 0-3 1.5 1.5 0 0 1 0 3zm72 24a1.5 1.5 0 1 1 0-3 1.5 1.5 0 0 1 0 3z" id="Oval-4-Copy" transform="rotate(45 958.58 97.58)"/>
        </g>
      </g>
    </g>
  </g>
</svg>
