<svg width="109" height="27" xmlns="http://www.w3.org/2000/svg">
  <path d="M83.432 11.361h-4.889v9.602c0 3.129 3.34 5.804 7.47 5.804s7.744-2.705 7.744-5.804V11.36h-4.89v8.66c0 1.427-1.214 2.582-2.702 2.582-1.518 0-2.732-1.155-2.732-2.613v-8.629h-.001zM5.882 6.076v19.93H.81V1.972h9.14c3.978 0 7.226 3.222 7.226 7.14 0 3.34-2.337 6.136-5.496 6.866l7.044 10.026h-6.042l-5.07-7.87v-5.741h1.184c1.882 0 3.4-1.398 3.4-3.13 0-1.733-1.427-3.188-3.31-3.188H5.882zm46.67 19.93V.82h-4.799V12.7c-1.275-1.247-2.885-1.945-4.737-1.945-3.947 0-7.165 3.493-7.165 7.839 0 4.313 3.219 7.838 7.165 7.838 1.883 0 3.645-.728 4.737-2.066v1.64h4.799zm-8.168-3.677c-1.944 0-3.522-1.731-3.522-3.86 0-2.126 1.578-3.858 3.522-3.858 1.943 0 3.521 1.733 3.521 3.859-.03 2.128-1.608 3.859-3.521 3.859zm28.33-9.386c1.307-1.216 2.127-2.856 2.127-4.649 0-1.64-.637-3.13-1.731-4.314-1.154-1.246-3.159-2.005-5.891-2.005H59.05v24.03h10.568c4.038-.06 7.317-3.13 7.317-6.897-.031-2.734-1.004-4.678-4.222-6.165zm-4.07 8.9H64.06V6.289h3.22c1.396 0 2.58 1.064 2.58 2.492 0 1.427-1.185 2.581-2.58 2.581h-1.7v4.345h3.127c1.7 0 2.976 1.397 2.976 3.1-.063 1.7-1.186 2.946-3.038 3.038zM22.978 16.8a2.917 2.917 0 0 1 2.915-2.916 2.917 2.917 0 0 1 2.915 2.916h-5.83zm10.567 2.735c.031-.334.06-.668.06-1.003.062-5.194-3.339-8.02-7.712-8.02-4.374 0-7.925 3.585-7.925 8.02 0 4.436 3.552 8.02 7.925 8.02 3.339 0 5.952-1.518 7.287-3.89l-3.888-1.79c-.484 1.062-1.639 1.821-3.006 1.821-1.791 0-3.279-1.366-3.279-3.16l10.538.002zM96.004.82h4.798v25.187h-4.798V.82zm8.168 0h4.798v25.187h-4.798V.82z" fill="#D4D9DD" fill-rule="evenodd"/>
</svg>
