<?xml version="1.0" encoding="UTF-8"?>
<svg width="205px" height="191px" viewBox="0 0 205 191" version="1.1" xmlns="http://www.w3.org/2000/svg" xmlns:xlink="http://www.w3.org/1999/xlink">
    <!-- Generator: Sketch 44.1 (41455) - http://www.bohemiancoding.com/sketch -->
    <title>Icon</title>
    <desc>Created with Sketch.</desc>
    <defs></defs>
    <g id="Layouts" stroke="none" stroke-width="1" fill="none" fill-rule="evenodd">
        <g id="DSK]-Homepage-V3-1" transform="translate(-107.000000, -746.000000)">
            <g id="Tab-Content" transform="translate(-62.000000, 700.000000)">
                <g id="Tabs" transform="translate(110.000000, 0.000000)">
                    <g id="Current">
                        <g id="Icon" transform="translate(52.000000, 31.000000)">
                            <g id="Dotted-Line" fill="#323232">
                                <path d="M104.728668,18.8268418 L104.576361,16.1235685 C106.356656,16.0233845 108.156921,15.9729541 109.951431,15.9726157 C110.813825,15.9726157 111.689419,15.9844617 112.553167,16.0078154 C113.364115,16.0298153 114.183863,16.0623074 114.98838,16.1046147 L114.847243,18.808565 C114.064725,18.7676115 113.267993,18.7357963 112.48006,18.7144734 C111.637635,18.6917966 110.787764,18.6755506 109.94297,18.680289 C108.20972,18.680289 106.455486,18.7293656 104.728668,18.8268418 L104.728668,18.8268418 Z M129.871446,20.839997 C126.596515,20.1177251 123.238323,19.5694213 119.889946,19.2103161 L120.178652,16.5182119 C123.62552,16.8878093 127.08288,17.4520207 130.454611,18.1956155 L129.871446,20.839997 Z M89.7146189,20.9266425 L89.1185923,18.2853072 C92.4899841,17.524451 95.9449753,16.943655 99.3874435,16.5591654 L99.6879953,19.2499158 C96.3446956,19.6235747 92.9888729,20.1877862 89.7146189,20.9266425 L89.7146189,20.9266425 Z M144.357159,25.324581 C141.239612,24.0665282 138.017142,22.9699205 134.778765,22.0652192 L135.507468,19.4573913 C138.841967,20.3891694 142.160559,21.5182692 145.370506,22.8135524 L144.357159,25.324581 Z M75.2553048,25.4823029 L74.2297735,22.9763513 C77.433628,21.6651604 80.7451125,20.5198146 84.0718277,19.5721289 L84.8133917,22.1762338 C81.5827989,23.0965043 78.3667599,24.2086811 75.2553048,25.4823029 L75.2553048,25.4823029 Z M157.906357,32.1519793 C155.038592,30.3943609 152.042552,28.7788953 149.001835,27.3505976 L150.152596,24.8998147 C153.283682,26.3704198 156.368398,28.0336082 159.321116,29.8430109 L157.906357,32.1519793 Z M61.7572146,32.3621625 L60.33264,30.0596247 C63.2762194,28.238376 66.3517979,26.5623262 69.4730683,25.0785212 L70.6356756,27.5242271 C67.6037583,28.9653863 64.6165177,30.5930364 61.7572146,32.3621625 L61.7572146,32.3621625 Z M170.142671,41.1174243 C167.603212,38.9130397 164.913816,36.8264389 162.149958,34.9154984 L163.689609,32.6884371 C166.535035,34.6555618 169.303293,36.8034237 171.917551,39.072454 L170.142671,41.1174243 Z M49.5655769,41.3705917 L47.7829125,39.3327291 C50.3883712,37.0542219 53.1474903,34.8958678 55.9834397,32.9179124 L57.5325673,35.13922 C54.7771712,37.0603142 52.096913,39.1570688 49.5655769,41.3705917 L49.5655769,41.3705917 Z M180.741859,51.9636868 C178.59772,49.3748126 176.286721,46.876307 173.873168,44.5378926 L175.757032,42.5934447 C178.241322,45.0002279 180.620352,47.5718406 182.827444,50.2368681 L180.741859,51.9636868 Z M39.008697,52.2574694 L36.9170193,50.5384352 C39.1122655,47.8663001 41.4814797,45.2855489 43.9583239,42.8672582 L45.8499722,44.8049369 C43.4435275,47.154182 41.1416667,49.6614875 39.008697,52.2574694 L39.008697,52.2574694 Z M189.419613,64.3942767 C187.729687,61.4909739 185.859361,58.6485938 183.860421,55.9459974 L186.037052,54.3359471 C188.095223,57.117743 190.020378,60.0437225 191.75972,63.0319785 L189.419613,64.3942767 Z M30.3779882,64.7303667 L28.0317892,63.3785607 C29.757931,60.3821817 31.6719176,57.4467253 33.7206109,54.6540987 L35.9036726,56.2553491 C33.9138711,58.9684378 32.0547149,61.8196178 30.3779882,64.7303667 L30.3779882,64.7303667 Z M195.929875,78.0747963 C194.744591,74.9362644 193.368416,71.8261631 191.839596,68.830461 L194.251118,67.5998235 C195.825291,70.6838634 197.24242,73.8863641 198.462904,77.1179722 L195.929875,78.0747963 Z M23.9218795,78.4589475 L21.3844511,77.5143079 C22.5910581,74.2722076 23.9939713,71.06023 25.5542681,67.9677286 L27.9718819,69.1875355 C26.4566002,72.1906837 25.0939636,75.3102618 23.9218795,78.4589475 L23.9218795,78.4589475 Z M200.087169,92.6424174 C199.436651,89.3441328 198.593887,86.0475405 197.582572,82.8443629 L200.164677,82.0290148 C201.206115,85.3272994 202.073586,88.7220449 202.744074,92.1181442 L200.087169,92.6424174 Z M19.8339697,93.0570299 L17.1750344,92.5459566 C17.8285991,89.1454573 18.6794854,85.7469888 19.7036629,82.4446426 L22.2898294,83.2467909 C21.2950979,86.45403 20.4689191,89.7546838 19.8339697,93.0570299 L19.8339697,93.0570299 Z M201.780819,107.704866 C201.68165,104.340582 201.394976,100.950913 200.928917,97.6302902 L203.610191,97.2539236 C204.090126,100.6727 204.385262,104.161875 204.487139,107.625328 L201.780819,107.704866 Z M18.206658,108.132678 L15.5,108.060248 L15.5027077,107.949233 C15.5954455,104.518611 15.8750128,101.065312 16.3332865,97.6851206 L19.0165908,98.0489642 C18.5711785,101.333033 18.2997342,104.688518 18.2097041,108.022002 L18.206658,108.132678 Z M203.648437,123.433402 L200.965809,123.065835 C201.420022,119.74792 201.696543,116.355882 201.787588,112.984829 L201.793004,112.769907 L204.5,112.829815 L204.494246,113.057936 C204.400493,116.527143 204.115849,120.01801 203.648437,123.433402 L203.648437,123.433402 Z M16.3708554,123.642231 C15.8956588,120.224809 15.6045839,116.734956 15.5057538,113.269473 L18.2124118,113.192981 C18.3081957,116.559635 18.5908091,119.949642 19.0528059,123.269249 L16.3708554,123.642231 Z M200.259784,138.670157 L197.674294,137.864962 C198.673425,134.6584 199.504004,131.358423 200.142338,128.057431 L202.800597,128.571889 C202.14297,131.971034 201.288361,135.368488 200.259784,138.670157 L200.259784,138.670157 Z M19.7984314,138.871201 C18.7607156,135.570886 17.8969678,132.175464 17.2308802,128.779026 L19.8881231,128.258137 C20.5349186,131.556422 21.3736204,134.85403 22.3815518,138.058561 L19.7984314,138.871201 Z M194.391917,153.139625 L191.975657,151.917449 C193.495,148.915316 194.861021,145.798107 196.03649,142.651113 L198.573241,143.598461 C197.362573,146.838869 195.955937,150.048816 194.391917,153.139625 L194.391917,153.139625 Z M25.6943902,153.307162 C24.1246165,150.222107 22.7112111,147.017914 21.4941119,143.783936 L24.0281557,142.830158 C25.2103936,145.970721 26.5828455,149.082853 28.107604,152.079571 L25.6943902,153.307162 Z M186.210005,166.444116 L184.028636,164.839481 C186.021822,162.129439 187.884362,159.280289 189.564474,156.371571 L191.909319,157.726085 C190.179454,160.720433 188.262083,163.65352 186.210005,166.444116 L186.210005,166.444116 Z M33.8925482,166.580854 C31.8374241,163.795673 29.9156529,160.867324 28.1807112,157.877376 L30.5228487,156.518124 C32.2080369,159.422781 34.0749777,162.267868 36.0715483,164.973173 L33.8925482,166.580854 Z M175.957738,178.218434 L174.068459,176.278724 C176.47795,173.931848 178.782857,171.426912 180.918196,168.834315 L183.00852,170.555718 C180.810227,173.224807 178.437967,175.802851 175.957738,178.218434 L175.957738,178.218434 Z M44.1590301,178.335879 C41.6764321,175.925034 39.3004488,173.350714 37.0977565,170.683994 L39.1853727,168.959206 C41.32545,171.549773 43.6334031,174.050986 46.0452631,176.393123 L44.1590301,178.335879 Z M163.921115,188.153226 L162.374695,185.930226 C165.132122,184.012516 167.815088,181.919146 170.348793,179.708331 L172.129088,181.748224 C169.520922,184.024024 166.759095,186.178993 163.921115,188.153226 L163.921115,188.153226 Z M56.2142688,188.254763 C53.3718887,186.284931 50.6060004,184.133346 47.9937725,181.860931 L49.7710216,179.81833 C52.3087885,182.026099 54.9954774,184.115408 57.7569657,186.029733 L56.2142688,188.254763 Z M150.422348,195.976709 L149.262787,193.530327 C152.295719,192.09289 155.284652,190.468625 158.146663,188.702545 L159.56853,191.007113 C156.622243,192.824978 153.544972,194.496966 150.422348,195.976709 L150.422348,195.976709 Z M69.7418049,196.059632 C66.6130883,194.585304 63.5300638,192.918392 60.5793767,191.105605 L61.9965053,188.798329 C64.862916,190.559332 67.8572642,192.178182 70.8962891,193.610203 L69.7418049,196.059632 Z M135.816819,201.465502 L135.078301,198.860382 C138.309233,197.944849 141.526287,196.836057 144.640111,195.56582 L145.662597,198.073464 C142.456711,199.38127 139.143873,200.522555 135.816819,201.465502 L135.816819,201.465502 Z M84.3811793,201.519655 C81.0487104,200.584493 77.731472,199.451331 74.5222022,198.151986 L75.5382566,195.641973 C78.6551271,196.904088 81.876243,198.004757 85.1125896,198.912504 L84.3811793,201.519655 Z M120.498157,204.45985 L120.200652,201.768761 C123.543613,201.399164 126.899774,200.839352 130.17572,200.104219 L130.768701,202.746231 C127.395278,203.503364 123.939949,204.07976 120.498157,204.45985 L120.498157,204.45985 Z M99.7062721,204.476773 C96.2604193,204.103114 92.8040742,203.534841 89.432344,202.787185 L90.0185553,200.143819 C93.2931477,200.869814 96.6510011,201.421841 99.9980239,201.785007 L99.7062721,204.476773 Z M110.062107,205.034215 L110.045184,205.034215 C109.188883,205.034215 108.313627,205.022369 107.444464,204.999692 C106.59527,204.976339 105.738291,204.941816 104.896205,204.896801 L105.040727,202.193189 C105.859121,202.236512 106.692408,202.270358 107.517233,202.292696 C108.367104,202.315711 109.216636,202.331619 110.062107,202.326542 C111.757111,202.326542 113.471406,202.279158 115.158625,202.186081 L115.308224,204.889693 C113.571252,204.985816 111.806187,205.034215 110.062107,205.034215 L110.062107,205.034215 Z" id="Fill-1" transform="translate(110.000000, 110.503415) rotate(10.000000) translate(-110.000000, -110.503415) "></path>
                            </g>
                            <g id="Screen" transform="translate(44.000000, 56.000000)">
                                <path d="M7.51543547,2.71909948 C4.8669777,2.71909948 2.71254156,4.87874424 2.71254156,7.53394489 L2.71254156,85.466395 C2.71254156,88.1209159 4.8669777,90.2809005 7.51543547,90.2809005 L121.484565,90.2809005 C124.133022,90.2809005 126.287458,88.1209159 126.287458,85.466395 L126.287458,7.53394489 C126.287458,4.87874424 124.133022,2.71909948 121.484565,2.71909948 L7.51543547,2.71909948 Z M121.484565,93 L7.51543547,93 C3.37135009,93 0,89.6201593 0,85.466395 L0,7.53394489 C0,3.37950077 3.37135009,0 7.51543547,0 L121.484565,0 C125.62865,0 129,3.37950077 129,7.53394489 L129,85.466395 C129,89.6201593 125.62865,93 121.484565,93 L121.484565,93 Z" id="Fill-6" fill="#323232"></path>
                                <path d="M52.6652863,104.364341 L75.3340473,104.364341 L75.3340473,92.6356589 L52.6652863,92.6356589 L52.6652863,104.364341 Z M50,107 L78,107 L78,90 L50,90 L50,107 Z" id="Fill-10" fill="#323232"></path>
                                <polygon id="Fill-11" fill="#CCD4D9" points="7 78 123 78 123 6 7 6"></polygon>
                                <path d="M7,78 L123,78 L123,6 L7,6 L7,78 Z M9.72352415,75.3035639 L120.276476,75.3035639 L120.276476,8.69576207 L9.72352415,8.69576207 L9.72352415,75.3035639 Z" id="Fill-12" fill="#323232"></path>
                                <path d="M42.6791508,110.020484 L85.3208492,110.020484 L85.3208492,106.979516 L42.6791508,106.979516 L42.6791508,110.020484 Z M40,113 L88,113 L88,104 L40,104 L40,113 Z" id="Fill-14" fill="#323232"></path>
                            </g>
                            <g id="Code" transform="translate(59.000000, 69.000000)">
                                <polygon id="Fill-15" fill="#C5268F" points="0 3 10 3 10 0 0 0"></polygon>
                                <polygon id="Fill-16" fill="#FFFFFF" points="0 36 10 36 10 33 0 33"></polygon>
                                <polygon id="Fill-17" fill="#FFFFFF" points="5 9 24 9 24 6 5 6"></polygon>
                                <polygon id="Fill-18" fill="#FFFFFF" points="27 9 35 9 35 6 27 6"></polygon>
                                <polygon id="Fill-19" fill="#FFFFFF" points="12 14 21 14 21 11 12 11"></polygon>
                                <polygon id="Fill-20" fill="#FFFFFF" points="42 14 56 14 56 11 42 11"></polygon>
                                <polygon id="Fill-21" fill="#FFFFFF" points="24 14 39 14 39 11 24 11"></polygon>
                                <polygon id="Fill-22" fill="#FFFFFF" points="12 25 21 25 21 22 12 22"></polygon>
                                <polygon id="Fill-23" fill="#FFFFFF" points="24 25 44 25 44 22 24 22"></polygon>
                                <polygon id="Fill-24" fill="#FFFFFF" points="12 19 33 19 33 16 12 16"></polygon>
                                <polygon id="Fill-25" fill="#FFFFFF" points="35 19 65 19 65 16 35 16"></polygon>
                                <polygon id="Fill-26" fill="#FFFFFF" points="21 31 31 31 31 28 21 28"></polygon>
                                <polygon id="Fill-27" fill="#FFFFFF" points="5 31 18 31 18 28 5 28"></polygon>
                                <polygon id="Fill-28" fill="#C5268F" points="0 42 15 42 15 39 0 39"></polygon>
                                <polygon id="Fill-29" fill="#C5268F" points="17 42 30 42 30 39 17 39"></polygon>
                                <polygon id="Fill-30" fill="#FFFFFF" points="5 48 24 48 24 45 5 45"></polygon>
                                <polygon id="Fill-31" fill="#FFFFFF" points="27 48 36 48 36 45 27 45"></polygon>
                                <polygon id="Fill-32" fill="#FFFFFF" points="12 53 21 53 21 50 12 50"></polygon>
                                <polygon id="Fill-33" fill="#FFFFFF" points="42 53 56 53 56 50 42 50"></polygon>
                                <polygon id="Fill-34" fill="#FFFFFF" points="24 53 39 53 39 50 24 50"></polygon>
                                <polygon id="Fill-35" fill="#FFFFFF" points="12 59 33 59 33 56 12 56"></polygon>
                                <polygon id="Fill-36" fill="#FFFFFF" points="35 59 65 59 65 56 35 56"></polygon>
                            </g>
                            <g id="Operational" transform="translate(118.000000, 27.000000)">
                                <polygon id="Fill-37" fill="#323232" points="23.4973638 59 10 12.7917143 12.5026362 12 26 58.2086259"></polygon>
                                <polygon id="Fill-38" fill="#323232" points="82.4725133 71 22 59.0381431 57.351423 17 59.4268583 18.7302531 27.0075713 57.280939 83 68.3564455"></polygon>
                                <path d="M37,58.5 C37,65.4035936 31.4031671,71 24.4998258,71 C17.5961359,71 12,65.4035936 12,58.5 C12,51.5964064 17.5961359,46 24.4998258,46 C31.4031671,46 37,51.5964064 37,58.5" id="Fill-39" fill="#C5268F"></path>
                                <path d="M24.4998307,47.7089055 C18.5497197,47.7089055 13.7089055,52.5497197 13.7089055,58.5001693 C13.7089055,64.4502803 18.5497197,69.2910945 24.4998307,69.2910945 C30.4499417,69.2910945 35.2910945,64.4502803 35.2910945,58.5001693 C35.2910945,52.5497197 30.4499417,47.7089055 24.4998307,47.7089055 M24.4998307,72 C17.0560969,72 11,65.9439031 11,58.5001693 C11,51.0560969 17.0560969,45 24.4998307,45 C31.9439031,45 38,51.0560969 38,58.5001693 C38,65.9439031 31.9439031,72 24.4998307,72" id="Fill-40" fill="#323232"></path>
                                <path d="M19,12 C19,16.9706973 14.9707721,21 10.0001669,21 C5.02956177,21 1,16.9706973 1,12 C1,7.02930267 5.02956177,3 10.0001669,3 C14.9707721,3 19,7.02930267 19,12" id="Fill-41" fill="#C5268F"></path>
                                <path d="M10.5001696,4.71313448 C6.20629512,4.71313448 2.71313448,8.20629512 2.71313448,12.4998304 C2.71313448,16.7937049 6.20629512,20.2868655 10.5001696,20.2868655 C14.7937049,20.2868655 18.2868655,16.7937049 18.2868655,12.4998304 C18.2868655,8.20629512 14.7937049,4.71313448 10.5001696,4.71313448 M10.5001696,23 C4.7103406,23 0,18.2896594 0,12.4998304 C0,6.7103406 4.7103406,2 10.5001696,2 C16.2896594,2 21,6.7103406 21,12.4998304 C21,18.2896594 16.2896594,23 10.5001696,23" id="Fill-42" fill="#323232"></path>
                                <path d="M75,17.5 C75,26.6126141 67.6125387,34 58.4998316,34 C49.3871244,34 42,26.6126141 42,17.5 C42,8.38738592 49.3871244,1 58.4998316,1 C67.6125387,1 75,8.38738592 75,17.5" id="Fill-43" fill="#C5268F"></path>
                                <path d="M59,2.71816071 C50.5737018,2.71816071 43.7181607,9.5737018 43.7181607,18 C43.7181607,26.4262982 50.5737018,33.2818393 59,33.2818393 C67.4262982,33.2818393 74.2818393,26.4262982 74.2818393,18 C74.2818393,9.5737018 67.4262982,2.71816071 59,2.71816071 M59,36 C49.0749759,36 41,27.9250241 41,18 C41,8.07497593 49.0749759,0 59,0 C68.9250241,0 77,8.07497593 77,18 C77,27.9250241 68.9250241,36 59,36" id="Fill-44" fill="#323232"></path>
                                <path d="M93,70 C93,75.5228144 88.5228923,80 83.0001742,80 C77.477456,80 73,75.5228144 73,70 C73,64.4771856 77.477456,60 83.0001742,60 C88.5228923,60 93,64.4771856 93,70" id="Fill-47" fill="#C5268F"></path>
                                <path d="M83.0001681,61.6902677 C78.4179698,61.6902677 74.6902677,65.4179698 74.6902677,69.9998319 C74.6902677,74.5820302 78.4179698,78.3097323 83.0001681,78.3097323 C87.5820302,78.3097323 91.3097323,74.5820302 91.3097323,69.9998319 C91.3097323,65.4179698 87.5820302,61.6902677 83.0001681,61.6902677 M83.0001681,81 C76.9346234,81 72,76.0653766 72,69.9998319 C72,63.9346234 76.9346234,59 83.0001681,59 C89.0653766,59 94,63.9346234 94,69.9998319 C94,76.0653766 89.0653766,81 83.0001681,81" id="Fill-48" fill="#323232"></path>
                                <polygon id="Fill-49" fill="#FFFFFF" points="19 60 30 60 30 57 19 57"></polygon>
                                <polygon id="Fill-50" fill="#FFFFFF" points="23 64 26 64 26 53 23 53"></polygon>
                            </g>
                            <g id="c#" transform="translate(7.000000, 138.000000)">
                                <path d="M56,27.999831 C56,42.9115576 43.9115576,55 28.999831,55 C14.0881044,55 2,42.9115576 2,27.999831 C2,13.0884424 14.0881044,1 28.999831,1 C43.9115576,1 56,13.0884424 56,27.999831" id="Fill-45" fill="#FFFFFF"></path>
                                <path d="M28.5,2.85364331 C14.3581137,2.85364331 2.85366028,14.3580284 2.85366028,28.4998305 C2.85366028,42.6412938 14.3581137,54.1463567 28.5,54.1463567 C42.6418863,54.1463567 54.1463397,42.6412938 54.1463397,28.4998305 C54.1463397,14.3580284 42.6418863,2.85364331 28.5,2.85364331 M28.5,57 C12.7848725,57 0,44.2148646 0,28.4998305 C0,12.7847965 12.7848725,0 28.5,0 C44.2151275,0 57,12.7847965 57,28.4998305 C57,44.2148646 44.2151275,57 28.5,57" id="Fill-46" fill="#323232"></path>
                                <path d="M17.8230017,32.561568 C17.8230017,30.5374628 16.660632,29.7279571 15.8965085,29.416635 C15.3320537,29.1363428 15,28.8874215 15,28.2644363 L15,27.3614998 C15,26.7702265 15.3320537,26.5209642 15.8965085,26.240672 C16.660632,25.89832 17.8230017,25.0884733 17.8230017,23.0336791 L17.8230017,20.4493305 C17.8230017,15.716075 21.3101107,15 22.5390366,15 L22.9045502,15 C23.6017538,15 24,15.342352 24,16.0273971 L24,16.40112 C24,17.0547942 23.6017538,17.4285171 22.9045502,17.4285171 C22.2404429,17.4285171 20.6460034,17.6781204 20.6460034,20.6982518 L20.6460034,23.8121549 C20.6460034,26.8946871 17.9557504,27.7662527 17.9557504,27.7662527 L17.9557504,27.8286535 C17.9557504,27.8286535 20.6460034,28.5760994 20.6460034,31.7834332 L20.6460034,35.3017482 C20.6460034,38.2911907 22.2404429,38.5711419 22.9045502,38.5711419 C23.6017538,38.5711419 24,38.9138349 24,39.59888 L24,39.9722619 C24,40.6262771 23.6017538,41 22.9045502,41 L22.5390366,41 C21.3101107,41 17.8230017,40.283584 17.8230017,35.5510105 L17.8230017,32.561568 Z" id="Fill-51" fill="#323232"></path>
                                <path d="M34.0961329,38.5711419 C34.7602134,38.5711419 36.3542248,38.2911907 36.3542248,35.3017482 L36.3542248,31.7834332 C36.3542248,28.5760994 39.044369,27.8286535 39.044369,27.8286535 L39.044369,27.7662527 C39.044369,27.7662527 36.3542248,26.8946871 36.3542248,23.8121549 L36.3542248,20.6982518 C36.3542248,17.6781204 34.7602134,17.4285171 34.0961329,17.4285171 C33.3985938,17.4285171 33,17.0547942 33,16.40112 L33,16.0273971 C33,15.342352 33.3985938,15 34.0961329,15 L34.461268,15 C35.7232392,15 39.1774761,15.716075 39.1774761,20.4489895 L39.1774761,23.0336791 C39.1774761,25.0884733 40.3394351,25.89832 41.1035277,26.240672 C41.6679598,26.5209642 42,26.7702265 42,27.3614998 L42,28.2644363 C42,28.8874215 41.6679598,29.1363428 41.1035277,29.416635 C40.3394351,29.7279571 39.1774761,30.5374628 39.1774761,32.561568 L39.1774761,35.5510105 C39.1774761,40.283584 35.7232392,41 34.461268,41 L34.0961329,41 C33.3985938,41 33,40.6262771 33,39.9722619 L33,39.59888 C33,38.9138349 33.3985938,38.5711419 34.0961329,38.5711419" id="Fill-52" fill="#323232"></path>
                            </g>
                        </g>
                    </g>
                </g>
            </g>
        </g>
    </g>
</svg>