<?xml version="1.0" encoding="UTF-8" standalone="no"?>
<!-- Generator: Adobe Illustrator 25.2.1, SVG Export Plug-In . SVG Version: 6.00 Build 0)  -->

<svg
   version="1.1"
   id="Layer_1"
   x="0px"
   y="0px"
   viewBox="0 0 1080 359.79998"
   xml:space="preserve"
   sodipodi:docname="5081d9f36e07d3ae3aa77a50a67089bc.svg"
   width="1080"
   height="359.79999"
   xmlns:inkscape="http://www.inkscape.org/namespaces/inkscape"
   xmlns:sodipodi="http://sodipodi.sourceforge.net/DTD/sodipodi-0.dtd"
   xmlns="http://www.w3.org/2000/svg"
   xmlns:svg="http://www.w3.org/2000/svg"><defs
   id="defs17" /><sodipodi:namedview
   id="namedview15"
   pagecolor="#ffffff"
   bordercolor="#666666"
   borderopacity="1.0"
   inkscape:pageshadow="2"
   inkscape:pageopacity="0.0"
   inkscape:pagecheckerboard="0" />
<style
   type="text/css"
   id="style2">
	.st0{fill:#FFFFFF;}
</style>
<g
   id="g12">
	<g
   id="g10">
		<path
   class="st0"
   d="M 0,179.8 C 0,76.6 78.6,0 184,0 288.9,0 368,76.6 368,179.8 368,282.5 289,359.6 184,359.6 78.6,359.6 0,282.5 0,179.8 m 274.7,0 c 0,-55.2 -37.6,-93.2 -90.7,-93.2 -53.1,0 -90.7,38.2 -90.7,93.2 0,55.2 37.7,93.2 90.7,93.2 53,0 90.7,-38 90.7,-93.2"
   id="path4" />
		<path
   class="st0"
   d="M 554.9,359.6 C 469.4,359.6 412.4,310.9 412,237.9 h 89.7 c 0.5,30.3 23.6,45.5 56.6,45.5 25.6,0 48.4,-11.5 48.4,-34.3 0,-23.3 -29.5,-30.3 -65.5,-36.4 C 486.9,203.7 417.7,189.2 417.7,108.9 417.7,44.5 472.5,0 554.7,0 636.9,0 690.9,45.7 691.1,113.7 h -87.3 c -0.4,-27 -19.3,-40.4 -51.4,-40.4 -28.6,0 -45.6,13.1 -45.6,32.6 0,22.7 29.1,28 64.4,34.4 55.5,9.9 126.5,21.7 126.5,104.6 -0.1,69.5 -56.8,114.7 -142.8,114.7 z"
   id="path6" />
		<path
   class="st0"
   d="M 760.2,206.3 V 9.7 h 92 v 186.2 c 0,48.4 25.6,77.2 68.1,77.2 42.7,0 67.7,-29.5 67.7,-77.2 V 9.7 h 92 v 196.7 c 0,91.9 -63.4,153.4 -159.7,153.4 -96.1,-0.2 -160.1,-61.6 -160.1,-153.5"
   id="path8" />
	</g>
</g>
</svg>
