<svg width="140" height="39" xmlns="http://www.w3.org/2000/svg">
  <path d="M21.14 24.098l-8.41 7.1-3.6-2.389v2.68l12.012 7.33 12.011-7.329v-2.68l-3.6 2.39-8.413-7.103v.001zm31.078-12.176h.79c1.87 0 4.435.225 4.435 6.817 0 7.012-2.598 7.237-4.434 7.237h-.791V11.922zm-4.624 17.752h5.541c1.615 0 3.895 0 5.764-1.48 2.28-1.768 3.452-5.37 3.452-9.39 0-10.55-6.556-10.58-9.787-10.58h-4.97v21.45zm16.35-15.855v15.855h4.337v-6.851c0-1.223 0-4.888 3.198-4.888.159 0 .348 0 .728.064V13.69a2.554 2.554 0 0 0-.76-.097c-2.532 0-3.293 2.702-3.673 4.053v-3.828h-3.83v.001zm15.218 2.734c1.331 0 1.838 1.094 1.838 5.178 0 4.245-.57 5.179-1.837 5.179-1.299 0-1.869-.966-1.869-5.177 0-3.893.445-5.18 1.837-5.18h.032-.001zm0-3.087c-4.654 0-6.364 3.312-6.364 8.265 0 5.114 1.836 8.264 6.334 8.264 4.56 0 6.364-3.182 6.364-8.264 0-4.953-1.709-8.265-6.334-8.265zm11.898 6.72c0-1.413 0-3.665 1.962-3.665 1.679 0 1.805 2.22 1.805 5.017 0 3.345-.158 5.307-1.932 5.307-1.836 0-1.836-1.351-1.836-3.635v-3.023h.001zm-4.277-6.365v21.225h4.276v-6.528c.475.514 1.266 1.381 2.977 1.381 4.97 0 5.288-6.11 5.288-8.36 0-2.67-.506-5.147-2.027-6.722-.76-.772-1.932-1.223-2.977-1.223-2.121 0-2.977 1.576-3.515 2.606v-2.38h-4.023.001zm18.108 5.595c0-.805 0-1.608.508-2.22a1.731 1.731 0 0 1 1.394-.674c1.235 0 1.899 1.06 1.899 5.241 0 4.085-.6 5.178-1.964 5.178-1.837 0-1.837-2.058-1.837-3.86v-3.665zm-4.275-11.192v21.451h2.565c.348-1.125.507-1.448.824-2.059.38.805 1.108 2.38 3.61 2.38.882.009 1.752-.2 2.534-.61 2.85-1.512 3.04-6.272 3.04-7.75 0-3.828-1.203-8.042-5.036-8.042-1.868 0-2.722 1.03-3.262 1.705V8.225h-4.275v-.001zm20.029 8.33c1.329 0 1.835 1.093 1.835 5.177 0 4.245-.569 5.179-1.835 5.179-1.3 0-1.87-.966-1.87-5.177 0-3.893.444-5.18 1.838-5.18h.032zm0-3.088c-4.657 0-6.367 3.312-6.367 8.265 0 5.114 1.838 8.264 6.335 8.264 4.56 0 6.365-3.182 6.365-8.264 0-4.953-1.711-8.265-6.333-8.265zm6.164.353l4.023 7.751-4.624 8.104h3.768l2.629-4.759 2.28 4.76h4.718l-4.656-8.876 4.023-6.98h-3.768l-1.996 3.667-1.677-3.667h-4.72zM12.729.256L.742 8.219l8.289 6.752L21.116 7.38 12.73.256zM.742 21.726l11.987 7.963 8.387-7.124L9.03 14.97.74 21.726zm20.374.839l8.387 7.124 11.987-7.963-8.288-6.755-12.085 7.595-.001-.001zM41.49 8.219L29.503.256l-8.386 7.123 12.085 7.592L41.49 8.22z" fill="#D4D9DD" fill-rule="nonzero"/>
</svg>
