<?xml version="1.0" encoding="utf-8"?>
<!-- Generator: Adobe Illustrator 19.2.0, SVG Export Plug-In . SVG Version: 6.00 Build 0)  -->
<svg version="1.1" id="Layer_1" xmlns="http://www.w3.org/2000/svg" xmlns:xlink="http://www.w3.org/1999/xlink" x="0px" y="0px"
	 viewBox="0 0 50 72.5" style="enable-background:new 0 0 50 72.5;" xml:space="preserve">
<style type="text/css">
	.st0{fill:#FF3464;}
	.st1{fill:#FFFFFF;}
</style>
<path class="st0" d="M44.7,40.7L24.9,72.5L5.3,40.7c-2.4-3.9-4.1-8.1-4.9-12.6C0.1,27,0,25.9,0,25C0,11.2,11.2,0,25,0s25,11.2,25,25
	c0,0.9-0.1,2-0.3,3.1C48.8,32.6,47.1,36.9,44.7,40.7z"/>
<path class="st1" d="M25,7.5C15.3,7.5,7.5,15.3,7.5,25c0,9.7,7.8,17.5,17.5,17.5S42.5,34.7,42.5,25C42.5,15.3,34.7,7.5,25,7.5z
	 M25,38.5c-7.5,0-13.5-6-13.5-13.5c0-7.5,6-13.5,13.5-13.5s13.5,6,13.5,13.5C38.5,32.5,32.5,38.5,25,38.5z"/>
</svg>
